<mxfile host="app.diagrams.net" modified="2024-01-30T13:34:22.454Z" agent="Mozilla/5.0 (Windows NT 10.0; Win64; x64) AppleWebKit/537.36 (KHTML, like Gecko) Chrome/121.0.0.0 Safari/537.36" etag="i_iVaYVd39hQgjTIV6Ib" version="22.1.16" type="device">
  <diagram name="Seite-1" id="GYqesnZQCZs1QaEqhSTq">
    <mxGraphModel dx="2298" dy="1022" grid="0" gridSize="10" guides="1" tooltips="1" connect="1" arrows="1" fold="1" page="1" pageScale="1" pageWidth="1654" pageHeight="1169" background="#FFFFFF" math="0" shadow="0">
      <root>
        <mxCell id="0" />
        <mxCell id="1" parent="0" />
        <mxCell id="MvTKbooedZdlY5eyJeiM-1" value="&lt;font&gt;«component»&lt;br&gt;&lt;/font&gt;&lt;div&gt;&lt;font&gt;&lt;b&gt;MySQL Database&lt;/b&gt;&lt;/font&gt;&lt;/div&gt;" style="html=1;dropTarget=0;whiteSpace=wrap;fillColor=#FFFFFF;strokeColor=#000000;container=0;fontColor=#000000;" parent="1" vertex="1">
          <mxGeometry x="266" y="112" width="558" height="386" as="geometry" />
        </mxCell>
        <mxCell id="MvTKbooedZdlY5eyJeiM-27" value="&lt;font&gt;«component»&lt;br&gt;&lt;/font&gt;&lt;div&gt;&lt;font&gt;&lt;b&gt;Backend&lt;/b&gt;&lt;/font&gt;&lt;/div&gt;" style="html=1;dropTarget=0;whiteSpace=wrap;fillColor=#FFFFFF;strokeColor=#000000;container=0;fontColor=#000000;" parent="1" vertex="1">
          <mxGeometry x="927" y="155" width="718" height="380" as="geometry" />
        </mxCell>
        <mxCell id="MvTKbooedZdlY5eyJeiM-32" value="&lt;div&gt;&lt;font&gt;«component»&lt;/font&gt;&lt;/div&gt;&lt;div&gt;&lt;font&gt;&lt;b&gt;Repository&lt;/b&gt;&lt;br&gt;&lt;/font&gt;&lt;/div&gt;" style="html=1;dropTarget=0;whiteSpace=wrap;fillColor=#FFFFFF;strokeColor=#000000;container=0;fontColor=#000000;" parent="1" vertex="1">
          <mxGeometry x="962.5" y="175.5" width="180" height="90" as="geometry" />
        </mxCell>
        <mxCell id="MvTKbooedZdlY5eyJeiM-36" value="&lt;div&gt;&lt;font&gt;«component»&lt;/font&gt;&lt;/div&gt;&lt;div&gt;&lt;font&gt;&lt;b&gt;ServiceImplementation&lt;br&gt;&lt;/b&gt;&lt;/font&gt;&lt;/div&gt;" style="html=1;dropTarget=0;whiteSpace=wrap;fillColor=#FFFFFF;strokeColor=#000000;container=0;fontColor=#000000;" parent="1" vertex="1">
          <mxGeometry x="1418" y="220" width="180" height="90" as="geometry" />
        </mxCell>
        <mxCell id="MvTKbooedZdlY5eyJeiM-38" value="&lt;div&gt;&lt;font&gt;«component»&lt;/font&gt;&lt;/div&gt;&lt;div&gt;&lt;font&gt;&lt;b&gt;Service&lt;/b&gt;&lt;br&gt;&lt;/font&gt;&lt;/div&gt;" style="html=1;dropTarget=0;whiteSpace=wrap;fillColor=#FFFFFF;strokeColor=#000000;container=0;fontColor=#000000;" parent="1" vertex="1">
          <mxGeometry x="1418" y="379" width="180" height="90" as="geometry" />
        </mxCell>
        <mxCell id="MvTKbooedZdlY5eyJeiM-40" value="&lt;div&gt;&lt;font&gt;«component»&lt;/font&gt;&lt;/div&gt;&lt;div&gt;&lt;font&gt;&lt;b&gt;RestService/Controller&lt;/b&gt;&lt;/font&gt;&lt;/div&gt;" style="html=1;dropTarget=0;whiteSpace=wrap;strokeColor=#000000;fillColor=#FFFFFF;container=0;fontColor=#000000;" parent="1" vertex="1">
          <mxGeometry x="950" y="366.5" width="205" height="115" as="geometry" />
        </mxCell>
        <mxCell id="MvTKbooedZdlY5eyJeiM-42" value="&lt;div&gt;&lt;font&gt;«component»&lt;/font&gt;&lt;/div&gt;&lt;div&gt;&lt;font&gt;&lt;b&gt;Database&lt;/b&gt;&lt;/font&gt;&lt;/div&gt;" style="html=1;dropTarget=0;whiteSpace=wrap;strokeColor=#000000;fillColor=#FFFFFF;gradientColor=none;container=0;fontColor=#000000;" parent="1" vertex="1">
          <mxGeometry x="609" y="185" width="205" height="115" as="geometry" />
        </mxCell>
        <mxCell id="MvTKbooedZdlY5eyJeiM-52" value="" style="rounded=0;orthogonalLoop=1;jettySize=auto;html=1;endArrow=halfCircle;endFill=0;endSize=6;strokeWidth=1;sketch=0;strokeColor=#000000;entryX=0.467;entryY=0.267;entryDx=0;entryDy=0;entryPerimeter=0;exitX=0;exitY=0.5;exitDx=0;exitDy=0;fillColor=#FFFFFF;fontColor=#000000;" parent="1" source="MvTKbooedZdlY5eyJeiM-40" target="MvTKbooedZdlY5eyJeiM-54" edge="1">
          <mxGeometry relative="1" as="geometry">
            <mxPoint x="699" y="602" as="sourcePoint" />
          </mxGeometry>
        </mxCell>
        <mxCell id="MvTKbooedZdlY5eyJeiM-53" value="" style="rounded=0;orthogonalLoop=1;jettySize=auto;html=1;endArrow=oval;endFill=0;sketch=0;sourcePerimeterSpacing=0;targetPerimeterSpacing=0;endSize=10;entryX=1;entryY=0.5;entryDx=0;entryDy=0;strokeColor=#000000;fillColor=#FFFFFF;fontColor=#000000;" parent="1" source="MvTKbooedZdlY5eyJeiM-54" target="MvTKbooedZdlY5eyJeiM-42" edge="1">
          <mxGeometry relative="1" as="geometry">
            <mxPoint x="817" y="739" as="sourcePoint" />
            <Array as="points" />
          </mxGeometry>
        </mxCell>
        <mxCell id="MvTKbooedZdlY5eyJeiM-54" value="" style="ellipse;whiteSpace=wrap;html=1;align=center;aspect=fixed;resizable=0;perimeter=centerPerimeter;rotatable=0;allowArrows=0;points=[];outlineConnect=1;container=0;fillColor=#FFFFFF;fontColor=#000000;strokeColor=#000000;" parent="1" vertex="1">
          <mxGeometry x="860" y="365" width="10" height="10" as="geometry" />
        </mxCell>
        <mxCell id="MvTKbooedZdlY5eyJeiM-59" value="" style="rounded=0;orthogonalLoop=1;jettySize=auto;html=1;endArrow=halfCircle;endFill=0;endSize=6;strokeWidth=1;sketch=0;strokeColor=#000000;exitX=1;exitY=0.5;exitDx=0;exitDy=0;fillColor=#FFFFFF;fontColor=#000000;" parent="1" source="MvTKbooedZdlY5eyJeiM-40" target="MvTKbooedZdlY5eyJeiM-61" edge="1">
          <mxGeometry relative="1" as="geometry">
            <mxPoint x="1101" y="635" as="sourcePoint" />
          </mxGeometry>
        </mxCell>
        <mxCell id="MvTKbooedZdlY5eyJeiM-60" value="" style="rounded=0;orthogonalLoop=1;jettySize=auto;html=1;endArrow=oval;endFill=0;sketch=0;sourcePerimeterSpacing=0;targetPerimeterSpacing=0;endSize=10;strokeColor=#000000;exitX=0;exitY=0.5;exitDx=0;exitDy=0;entryX=0.533;entryY=0.267;entryDx=0;entryDy=0;entryPerimeter=0;fillColor=#FFFFFF;fontColor=#000000;" parent="1" source="MvTKbooedZdlY5eyJeiM-38" target="MvTKbooedZdlY5eyJeiM-61" edge="1">
          <mxGeometry relative="1" as="geometry">
            <mxPoint x="1061" y="635" as="sourcePoint" />
            <mxPoint x="1078" y="618" as="targetPoint" />
          </mxGeometry>
        </mxCell>
        <mxCell id="MvTKbooedZdlY5eyJeiM-61" value="" style="ellipse;whiteSpace=wrap;html=1;align=center;aspect=fixed;resizable=0;perimeter=centerPerimeter;rotatable=0;allowArrows=0;points=[];outlineConnect=1;container=0;fillColor=#FFFFFF;fontColor=#000000;strokeColor=#000000;" parent="1" vertex="1">
          <mxGeometry x="1277" y="422" width="10" height="10" as="geometry" />
        </mxCell>
        <mxCell id="MvTKbooedZdlY5eyJeiM-62" value="" style="rounded=0;orthogonalLoop=1;jettySize=auto;html=1;endArrow=oval;endFill=0;sketch=0;sourcePerimeterSpacing=0;targetPerimeterSpacing=0;endSize=10;strokeColor=#000000;exitX=0.5;exitY=1;exitDx=0;exitDy=0;entryX=0.7;entryY=0.9;entryDx=0;entryDy=0;entryPerimeter=0;fillColor=#FFFFFF;fontColor=#000000;" parent="1" source="MvTKbooedZdlY5eyJeiM-32" target="MvTKbooedZdlY5eyJeiM-64" edge="1">
          <mxGeometry relative="1" as="geometry">
            <mxPoint x="1257" y="310" as="sourcePoint" />
            <mxPoint x="1143" y="304" as="targetPoint" />
          </mxGeometry>
        </mxCell>
        <mxCell id="MvTKbooedZdlY5eyJeiM-63" value="" style="rounded=0;orthogonalLoop=1;jettySize=auto;html=1;endArrow=halfCircle;endFill=0;endSize=6;strokeWidth=1;sketch=0;strokeColor=#000000;exitX=0.5;exitY=0;exitDx=0;exitDy=0;entryX=0.95;entryY=0.7;entryDx=0;entryDy=0;entryPerimeter=0;fillColor=#FFFFFF;fontColor=#000000;" parent="1" source="MvTKbooedZdlY5eyJeiM-40" target="MvTKbooedZdlY5eyJeiM-64" edge="1">
          <mxGeometry relative="1" as="geometry">
            <mxPoint x="1023" y="311" as="sourcePoint" />
            <mxPoint x="1076" y="313" as="targetPoint" />
          </mxGeometry>
        </mxCell>
        <mxCell id="MvTKbooedZdlY5eyJeiM-64" value="" style="ellipse;whiteSpace=wrap;html=1;align=center;aspect=fixed;resizable=0;perimeter=centerPerimeter;rotatable=0;allowArrows=0;points=[];outlineConnect=1;container=0;fillColor=#FFFFFF;fontColor=#000000;strokeColor=#000000;" parent="1" vertex="1">
          <mxGeometry x="1047.5" y="307" width="10" height="10" as="geometry" />
        </mxCell>
        <mxCell id="MvTKbooedZdlY5eyJeiM-70" value="" style="rounded=0;orthogonalLoop=1;jettySize=auto;html=1;endArrow=oval;endFill=0;sketch=0;sourcePerimeterSpacing=0;targetPerimeterSpacing=0;endSize=10;strokeColor=#000000;exitX=0.533;exitY=0.967;exitDx=0;exitDy=0;exitPerimeter=0;entryX=0.533;entryY=0.3;entryDx=0;entryDy=0;entryPerimeter=0;fillColor=#FFFFFF;fontColor=#000000;" parent="1" edge="1">
          <mxGeometry relative="1" as="geometry">
            <mxPoint x="1506" y="352" as="sourcePoint" />
            <mxPoint x="1506" y="352" as="targetPoint" />
          </mxGeometry>
        </mxCell>
        <mxCell id="MvTKbooedZdlY5eyJeiM-78" value="" style="rounded=0;orthogonalLoop=1;jettySize=auto;html=1;endArrow=halfCircle;endFill=0;endSize=6;strokeWidth=1;sketch=0;strokeColor=#000000;exitX=0;exitY=0.5;exitDx=0;exitDy=0;fillColor=#FFFFFF;fontColor=#000000;" parent="1" source="MvTKbooedZdlY5eyJeiM-36" target="MvTKbooedZdlY5eyJeiM-80" edge="1">
          <mxGeometry relative="1" as="geometry">
            <mxPoint x="1101" y="635" as="sourcePoint" />
          </mxGeometry>
        </mxCell>
        <mxCell id="MvTKbooedZdlY5eyJeiM-79" value="" style="rounded=0;orthogonalLoop=1;jettySize=auto;html=1;endArrow=oval;endFill=0;sketch=0;sourcePerimeterSpacing=0;targetPerimeterSpacing=0;endSize=10;strokeColor=#000000;exitX=1;exitY=0.5;exitDx=0;exitDy=0;fillColor=#FFFFFF;fontColor=#000000;" parent="1" source="MvTKbooedZdlY5eyJeiM-32" target="MvTKbooedZdlY5eyJeiM-80" edge="1">
          <mxGeometry relative="1" as="geometry">
            <mxPoint x="1061" y="635" as="sourcePoint" />
            <mxPoint x="1060" y="615" as="targetPoint" />
          </mxGeometry>
        </mxCell>
        <mxCell id="MvTKbooedZdlY5eyJeiM-80" value="" style="ellipse;whiteSpace=wrap;html=1;align=center;aspect=fixed;resizable=0;perimeter=centerPerimeter;rotatable=0;allowArrows=0;points=[];outlineConnect=1;container=0;fillColor=#FFFFFF;fontColor=#000000;strokeColor=#000000;" parent="1" vertex="1">
          <mxGeometry x="1340" y="252" width="10" height="10" as="geometry" />
        </mxCell>
        <mxCell id="MvTKbooedZdlY5eyJeiM-81" value="" style="rounded=0;orthogonalLoop=1;jettySize=auto;html=1;endArrow=oval;endFill=0;sketch=0;sourcePerimeterSpacing=0;targetPerimeterSpacing=0;endSize=10;strokeColor=#000000;exitX=1;exitY=0.75;exitDx=0;exitDy=0;entryX=0.133;entryY=0.35;entryDx=0;entryDy=0;entryPerimeter=0;fillColor=#FFFFFF;fontColor=#000000;" parent="1" source="MvTKbooedZdlY5eyJeiM-32" target="MvTKbooedZdlY5eyJeiM-82" edge="1">
          <mxGeometry relative="1" as="geometry">
            <mxPoint x="1153" y="231" as="sourcePoint" />
            <mxPoint x="1355" y="267" as="targetPoint" />
          </mxGeometry>
        </mxCell>
        <mxCell id="MvTKbooedZdlY5eyJeiM-82" value="" style="ellipse;whiteSpace=wrap;html=1;align=center;aspect=fixed;resizable=0;perimeter=centerPerimeter;rotatable=0;allowArrows=0;points=[];outlineConnect=1;container=0;fillColor=#FFFFFF;fontColor=#000000;strokeColor=#000000;" parent="1" vertex="1">
          <mxGeometry x="1360" y="323" width="10" height="10" as="geometry" />
        </mxCell>
        <mxCell id="MvTKbooedZdlY5eyJeiM-83" value="" style="rounded=0;orthogonalLoop=1;jettySize=auto;html=1;endArrow=halfCircle;endFill=0;endSize=6;strokeWidth=1;sketch=0;strokeColor=#000000;exitX=0;exitY=0.25;exitDx=0;exitDy=0;entryX=0.267;entryY=0.883;entryDx=0;entryDy=0;entryPerimeter=0;fillColor=#FFFFFF;fontColor=#000000;" parent="1" source="MvTKbooedZdlY5eyJeiM-38" target="MvTKbooedZdlY5eyJeiM-82" edge="1">
          <mxGeometry relative="1" as="geometry">
            <mxPoint x="1418" y="400" as="sourcePoint" />
            <mxPoint x="1345" y="392" as="targetPoint" />
            <Array as="points">
              <mxPoint x="1368" y="330" />
            </Array>
          </mxGeometry>
        </mxCell>
        <mxCell id="MvTKbooedZdlY5eyJeiM-84" value="" style="rounded=0;orthogonalLoop=1;jettySize=auto;html=1;endArrow=halfCircle;endFill=0;endSize=6;strokeWidth=1;sketch=0;strokeColor=#000000;fillColor=#FFFFFF;fontColor=#000000;" parent="1" source="MvTKbooedZdlY5eyJeiM-38" target="MvTKbooedZdlY5eyJeiM-86" edge="1">
          <mxGeometry relative="1" as="geometry">
            <mxPoint x="1101" y="549" as="sourcePoint" />
          </mxGeometry>
        </mxCell>
        <mxCell id="MvTKbooedZdlY5eyJeiM-85" value="" style="rounded=0;orthogonalLoop=1;jettySize=auto;html=1;endArrow=oval;endFill=0;sketch=0;sourcePerimeterSpacing=0;targetPerimeterSpacing=0;endSize=10;strokeColor=#000000;entryX=0.867;entryY=0.333;entryDx=0;entryDy=0;entryPerimeter=0;exitX=0.5;exitY=1;exitDx=0;exitDy=0;fillColor=#FFFFFF;fontColor=#000000;" parent="1" source="MvTKbooedZdlY5eyJeiM-36" target="MvTKbooedZdlY5eyJeiM-86" edge="1">
          <mxGeometry relative="1" as="geometry">
            <mxPoint x="1491.5" y="307" as="sourcePoint" />
            <mxPoint x="1516.5" y="353" as="targetPoint" />
          </mxGeometry>
        </mxCell>
        <mxCell id="MvTKbooedZdlY5eyJeiM-86" value="" style="ellipse;whiteSpace=wrap;html=1;align=center;aspect=fixed;resizable=0;perimeter=centerPerimeter;rotatable=0;allowArrows=0;points=[];outlineConnect=1;container=0;fillColor=#FFFFFF;fontColor=#000000;strokeColor=#000000;" parent="1" vertex="1">
          <mxGeometry x="1503" y="340" width="10" height="10" as="geometry" />
        </mxCell>
        <mxCell id="MvTKbooedZdlY5eyJeiM-87" value="&lt;font&gt;«component»&lt;br&gt;&lt;/font&gt;&lt;div&gt;&lt;font&gt;&lt;b&gt;Frontend&lt;/b&gt;&lt;/font&gt;&lt;/div&gt;" style="html=1;dropTarget=0;whiteSpace=wrap;fillColor=#FFFFFF;strokeColor=#000000;container=0;fontColor=#000000;" parent="1" vertex="1">
          <mxGeometry x="405" y="613" width="955" height="456" as="geometry" />
        </mxCell>
        <mxCell id="MvTKbooedZdlY5eyJeiM-89" value="&lt;div&gt;&lt;font&gt;«component»&lt;/font&gt;&lt;/div&gt;&lt;div&gt;&lt;font&gt;&lt;b&gt;WebService&lt;/b&gt;&lt;/font&gt;&lt;/div&gt;" style="html=1;dropTarget=0;whiteSpace=wrap;strokeColor=#000000;fillColor=#FFFFFF;container=0;fontColor=#000000;" parent="1" vertex="1">
          <mxGeometry x="764.5" y="628.5" width="205" height="115" as="geometry" />
        </mxCell>
        <mxCell id="MvTKbooedZdlY5eyJeiM-92" value="" style="rounded=0;orthogonalLoop=1;jettySize=auto;html=1;endArrow=halfCircle;endFill=0;endSize=6;strokeWidth=1;sketch=0;exitX=0.554;exitY=1.051;exitDx=0;exitDy=0;strokeColor=#000000;entryX=0.9;entryY=0.1;entryDx=0;entryDy=0;entryPerimeter=0;exitPerimeter=0;fillColor=#FFFFFF;fontColor=#000000;" parent="1" source="MvTKbooedZdlY5eyJeiM-40" target="MvTKbooedZdlY5eyJeiM-94" edge="1">
          <mxGeometry relative="1" as="geometry">
            <mxPoint x="1129.5" y="474" as="sourcePoint" />
            <mxPoint x="1034" y="543.5" as="targetPoint" />
          </mxGeometry>
        </mxCell>
        <mxCell id="MvTKbooedZdlY5eyJeiM-95" value="" style="rounded=0;orthogonalLoop=1;jettySize=auto;html=1;endArrow=oval;endFill=0;sketch=0;sourcePerimeterSpacing=0;targetPerimeterSpacing=0;endSize=10;exitX=0.5;exitY=0;exitDx=0;exitDy=0;strokeColor=#000000;fillColor=#FFFFFF;fontColor=#000000;" parent="1" source="MvTKbooedZdlY5eyJeiM-89" target="MvTKbooedZdlY5eyJeiM-94" edge="1">
          <mxGeometry relative="1" as="geometry">
            <mxPoint x="725" y="503" as="sourcePoint" />
            <mxPoint x="869" y="425" as="targetPoint" />
          </mxGeometry>
        </mxCell>
        <mxCell id="MvTKbooedZdlY5eyJeiM-94" value="" style="ellipse;whiteSpace=wrap;html=1;align=center;aspect=fixed;resizable=0;perimeter=centerPerimeter;rotatable=0;allowArrows=0;points=[];outlineConnect=1;container=0;fillColor=#FFFFFF;fontColor=#000000;strokeColor=#000000;" parent="1" vertex="1">
          <mxGeometry x="1017" y="548.5" width="10" height="10" as="geometry" />
        </mxCell>
        <mxCell id="MvTKbooedZdlY5eyJeiM-96" value="&lt;div&gt;&lt;font&gt;«component»&lt;/font&gt;&lt;/div&gt;&lt;div&gt;&lt;b&gt;Replay-Moves&lt;/b&gt;&lt;/div&gt;" style="html=1;dropTarget=0;whiteSpace=wrap;fillColor=#FFFFFF;strokeColor=#000000;container=0;fontColor=#000000;" parent="1" vertex="1">
          <mxGeometry x="834" y="939" width="180" height="90" as="geometry" />
        </mxCell>
        <mxCell id="MvTKbooedZdlY5eyJeiM-100" value="&lt;div&gt;&lt;font&gt;«component»&lt;/font&gt;&lt;/div&gt;&lt;div&gt;&lt;font&gt;&lt;b&gt;Registration&lt;/b&gt;&lt;br&gt;&lt;/font&gt;&lt;/div&gt;" style="html=1;dropTarget=0;whiteSpace=wrap;fillColor=#FFFFFF;strokeColor=#000000;container=0;fontColor=#000000;" parent="1" vertex="1">
          <mxGeometry x="434" y="775" width="180" height="90" as="geometry" />
        </mxCell>
        <mxCell id="MvTKbooedZdlY5eyJeiM-102" value="&lt;div&gt;&lt;font&gt;«component»&lt;/font&gt;&lt;/div&gt;&lt;div&gt;&lt;font&gt;&lt;b&gt;Login&lt;/b&gt;&lt;/font&gt;&lt;br&gt;&lt;/div&gt;" style="html=1;dropTarget=0;whiteSpace=wrap;fillColor=#FFFFFF;strokeColor=#000000;container=0;fontColor=#000000;" parent="1" vertex="1">
          <mxGeometry x="434" y="659" width="180" height="90" as="geometry" />
        </mxCell>
        <mxCell id="MvTKbooedZdlY5eyJeiM-106" value="&lt;div&gt;&lt;font&gt;«component»&lt;/font&gt;&lt;/div&gt;&lt;div&gt;&lt;font&gt;&lt;b&gt;HomePage&lt;/b&gt;&lt;br&gt;&lt;/font&gt;&lt;/div&gt;" style="html=1;dropTarget=0;whiteSpace=wrap;fillColor=#FFFFFF;strokeColor=#000000;container=0;fontColor=#000000;" parent="1" vertex="1">
          <mxGeometry x="775" y="791" width="180" height="90" as="geometry" />
        </mxCell>
        <mxCell id="MvTKbooedZdlY5eyJeiM-108" value="&lt;div&gt;&lt;font&gt;«component»&lt;/font&gt;&lt;/div&gt;&lt;div&gt;&lt;font&gt;&lt;b&gt;UserProfile&lt;/b&gt;&lt;br&gt;&lt;/font&gt;&lt;/div&gt;" style="html=1;dropTarget=0;whiteSpace=wrap;fillColor=#FFFFFF;strokeColor=#000000;container=0;fontColor=#000000;" parent="1" vertex="1">
          <mxGeometry x="1160" y="665" width="180" height="90" as="geometry" />
        </mxCell>
        <mxCell id="GyxYuytBnQCfA59tnKjW-6" value="" style="rounded=0;orthogonalLoop=1;jettySize=auto;html=1;endArrow=halfCircle;endFill=0;endSize=6;strokeWidth=1;sketch=0;exitX=1;exitY=0.75;exitDx=0;exitDy=0;strokeColor=#000000;fillColor=#FFFFFF;fontColor=#000000;" parent="1" source="MvTKbooedZdlY5eyJeiM-89" edge="1">
          <mxGeometry relative="1" as="geometry">
            <mxPoint x="797" y="622" as="sourcePoint" />
            <mxPoint x="1104" y="711" as="targetPoint" />
          </mxGeometry>
        </mxCell>
        <mxCell id="GyxYuytBnQCfA59tnKjW-5" value="" style="ellipse;whiteSpace=wrap;html=1;align=center;aspect=fixed;resizable=0;perimeter=centerPerimeter;rotatable=0;allowArrows=0;points=[];outlineConnect=1;container=0;fillColor=#FFFFFF;fontColor=#000000;strokeColor=#000000;" parent="1" vertex="1">
          <mxGeometry x="1098" y="705" width="10" height="10" as="geometry" />
        </mxCell>
        <mxCell id="GyxYuytBnQCfA59tnKjW-7" value="" style="rounded=0;orthogonalLoop=1;jettySize=auto;html=1;endArrow=oval;endFill=0;sketch=0;sourcePerimeterSpacing=0;targetPerimeterSpacing=0;endSize=10;strokeColor=#000000;exitX=0;exitY=0.5;exitDx=0;exitDy=0;entryX=0.3;entryY=-0.2;entryDx=0;entryDy=0;entryPerimeter=0;fillColor=#FFFFFF;fontColor=#000000;" parent="1" source="MvTKbooedZdlY5eyJeiM-108" target="GyxYuytBnQCfA59tnKjW-5" edge="1">
          <mxGeometry relative="1" as="geometry">
            <mxPoint x="1315" y="889" as="sourcePoint" />
            <mxPoint x="1114" y="725" as="targetPoint" />
          </mxGeometry>
        </mxCell>
        <mxCell id="GyxYuytBnQCfA59tnKjW-11" value="" style="rounded=0;orthogonalLoop=1;jettySize=auto;html=1;endArrow=halfCircle;endFill=0;endSize=6;strokeWidth=1;sketch=0;exitX=0;exitY=0.5;exitDx=0;exitDy=0;strokeColor=#000000;fillColor=#FFFFFF;fontColor=#000000;" parent="1" source="GyxYuytBnQCfA59tnKjW-19" edge="1">
          <mxGeometry relative="1" as="geometry">
            <mxPoint x="515" y="682" as="sourcePoint" />
            <mxPoint x="717" y="700" as="targetPoint" />
          </mxGeometry>
        </mxCell>
        <mxCell id="GyxYuytBnQCfA59tnKjW-16" value="" style="rounded=0;orthogonalLoop=1;jettySize=auto;html=1;endArrow=oval;endFill=0;sketch=0;sourcePerimeterSpacing=0;targetPerimeterSpacing=0;endSize=10;exitX=1;exitY=0.5;exitDx=0;exitDy=0;strokeColor=#000000;entryX=0.5;entryY=0.3;entryDx=0;entryDy=0;entryPerimeter=0;fillColor=#FFFFFF;fontColor=#000000;" parent="1" source="MvTKbooedZdlY5eyJeiM-100" target="x85bNRvsHFvpaz6X490h-4" edge="1">
          <mxGeometry relative="1" as="geometry">
            <mxPoint x="782" y="861" as="sourcePoint" />
            <mxPoint x="722" y="789" as="targetPoint" />
          </mxGeometry>
        </mxCell>
        <mxCell id="GyxYuytBnQCfA59tnKjW-18" value="" style="rounded=0;orthogonalLoop=1;jettySize=auto;html=1;endArrow=oval;endFill=0;sketch=0;sourcePerimeterSpacing=0;targetPerimeterSpacing=0;endSize=10;exitX=1;exitY=0.5;exitDx=0;exitDy=0;strokeColor=#000000;fillColor=#FFFFFF;fontColor=#000000;" parent="1" source="MvTKbooedZdlY5eyJeiM-102" target="GyxYuytBnQCfA59tnKjW-19" edge="1">
          <mxGeometry relative="1" as="geometry">
            <mxPoint x="822" y="875" as="sourcePoint" />
            <mxPoint x="879" y="697" as="targetPoint" />
          </mxGeometry>
        </mxCell>
        <mxCell id="GyxYuytBnQCfA59tnKjW-19" value="" style="ellipse;whiteSpace=wrap;html=1;align=center;aspect=fixed;resizable=0;perimeter=centerPerimeter;rotatable=0;allowArrows=0;points=[];outlineConnect=1;strokeColor=#000000;container=0;fillColor=#FFFFFF;fontColor=#000000;" parent="1" vertex="1">
          <mxGeometry x="711.5" y="695" width="10" height="10" as="geometry" />
        </mxCell>
        <mxCell id="GyxYuytBnQCfA59tnKjW-27" value="" style="rounded=0;orthogonalLoop=1;jettySize=auto;html=1;endArrow=halfCircle;endFill=0;endSize=6;strokeWidth=1;sketch=0;exitX=0.5;exitY=1;exitDx=0;exitDy=0;strokeColor=#000000;fillColor=#FFFFFF;fontColor=#000000;" parent="1" source="MvTKbooedZdlY5eyJeiM-89" edge="1">
          <mxGeometry relative="1" as="geometry">
            <mxPoint x="525" y="692" as="sourcePoint" />
            <mxPoint x="867" y="768" as="targetPoint" />
          </mxGeometry>
        </mxCell>
        <mxCell id="GyxYuytBnQCfA59tnKjW-28" value="" style="ellipse;whiteSpace=wrap;html=1;align=center;aspect=fixed;resizable=0;perimeter=centerPerimeter;rotatable=0;allowArrows=0;points=[];outlineConnect=1;container=0;fillColor=#FFFFFF;fontColor=#000000;strokeColor=#000000;" parent="1" vertex="1">
          <mxGeometry x="860" y="765" width="10" height="10" as="geometry" />
        </mxCell>
        <mxCell id="GyxYuytBnQCfA59tnKjW-29" value="" style="rounded=0;orthogonalLoop=1;jettySize=auto;html=1;endArrow=oval;endFill=0;sketch=0;sourcePerimeterSpacing=0;targetPerimeterSpacing=0;endSize=10;exitX=0.5;exitY=0;exitDx=0;exitDy=0;strokeColor=#000000;entryX=0.9;entryY=0.9;entryDx=0;entryDy=0;entryPerimeter=0;fillColor=#FFFFFF;fontColor=#000000;" parent="1" source="MvTKbooedZdlY5eyJeiM-106" target="GyxYuytBnQCfA59tnKjW-28" edge="1">
          <mxGeometry relative="1" as="geometry">
            <mxPoint x="412" y="894.5" as="sourcePoint" />
            <mxPoint x="472" y="927" as="targetPoint" />
          </mxGeometry>
        </mxCell>
        <mxCell id="zY79K7wIwHD1NrvoAWkB-4" style="edgeStyle=orthogonalEdgeStyle;rounded=0;orthogonalLoop=1;jettySize=auto;html=1;entryX=0;entryY=0.5;entryDx=0;entryDy=0;" edge="1" parent="1" source="4gdbyEsOkvN1cczmlgGf-1" target="MvTKbooedZdlY5eyJeiM-42">
          <mxGeometry relative="1" as="geometry">
            <Array as="points">
              <mxPoint x="595" y="416" />
              <mxPoint x="595" y="242" />
            </Array>
          </mxGeometry>
        </mxCell>
        <mxCell id="4gdbyEsOkvN1cczmlgGf-1" value="&lt;div&gt;&lt;font&gt;«component»&lt;b&gt;&lt;br&gt;&lt;/b&gt;&lt;/font&gt;&lt;/div&gt;&lt;font&gt;&lt;b&gt;UserDatabase&lt;br&gt;&lt;/b&gt;&lt;/font&gt;" style="html=1;dropTarget=0;whiteSpace=wrap;fillColor=#FFFFFF;strokeColor=#000000;container=0;fontColor=#000000;" parent="1" vertex="1">
          <mxGeometry x="369" y="371" width="180" height="90" as="geometry" />
        </mxCell>
        <mxCell id="4gdbyEsOkvN1cczmlgGf-5" value="&lt;div&gt;&lt;font&gt;«component»&lt;/font&gt;&lt;/div&gt;&lt;div&gt;&lt;b&gt;PGNDatabase&lt;/b&gt;&lt;/div&gt;" style="html=1;dropTarget=0;whiteSpace=wrap;fillColor=#FFFFFF;strokeColor=#000000;container=0;fontColor=#000000;" parent="1" vertex="1">
          <mxGeometry x="342" y="122" width="180" height="90" as="geometry" />
        </mxCell>
        <mxCell id="zY79K7wIwHD1NrvoAWkB-3" value="" style="edgeStyle=orthogonalEdgeStyle;rounded=0;orthogonalLoop=1;jettySize=auto;html=1;" edge="1" parent="1" source="4gdbyEsOkvN1cczmlgGf-7" target="MvTKbooedZdlY5eyJeiM-42">
          <mxGeometry relative="1" as="geometry" />
        </mxCell>
        <mxCell id="4gdbyEsOkvN1cczmlgGf-7" value="&lt;div&gt;&lt;font&gt;«component»&lt;b&gt;&lt;br&gt;&lt;/b&gt;&lt;/font&gt;&lt;/div&gt;&lt;div&gt;&lt;font&gt;&lt;b&gt;ChessGameDatabase&lt;/b&gt;&lt;/font&gt;&lt;/div&gt;" style="html=1;dropTarget=0;whiteSpace=wrap;fillColor=#FFFFFF;strokeColor=#000000;container=0;fontColor=#000000;" parent="1" vertex="1">
          <mxGeometry x="622" y="371" width="180" height="90" as="geometry" />
        </mxCell>
        <mxCell id="4gdbyEsOkvN1cczmlgGf-15" style="edgeStyle=orthogonalEdgeStyle;rounded=0;orthogonalLoop=1;jettySize=auto;html=1;entryX=0.5;entryY=0;entryDx=0;entryDy=0;strokeColor=#000000;exitX=1;exitY=0.5;exitDx=0;exitDy=0;fillColor=#FFFFFF;fontColor=#000000;" parent="1" source="4gdbyEsOkvN1cczmlgGf-5" target="MvTKbooedZdlY5eyJeiM-42" edge="1">
          <mxGeometry relative="1" as="geometry">
            <mxPoint x="215" y="272" as="sourcePoint" />
            <mxPoint x="619" y="253" as="targetPoint" />
          </mxGeometry>
        </mxCell>
        <mxCell id="4gdbyEsOkvN1cczmlgGf-28" value="&lt;div&gt;&lt;font&gt;«component»&lt;/font&gt;&lt;/div&gt;&lt;div&gt;&lt;font&gt;&lt;b&gt;PlayGameAgainstUser&lt;/b&gt;&lt;br&gt;&lt;/font&gt;&lt;/div&gt;" style="html=1;dropTarget=0;whiteSpace=wrap;fillColor=#FFFFFF;strokeColor=#000000;container=0;fontColor=#000000;" parent="1" vertex="1">
          <mxGeometry x="423" y="939" width="180" height="90" as="geometry" />
        </mxCell>
        <mxCell id="4gdbyEsOkvN1cczmlgGf-30" value="&lt;div&gt;&lt;font&gt;«component»&lt;/font&gt;&lt;/div&gt;&lt;div&gt;&lt;font&gt;&lt;b&gt;StreamingGames&lt;/b&gt;&lt;br&gt;&lt;/font&gt;&lt;/div&gt;" style="html=1;dropTarget=0;whiteSpace=wrap;fillColor=#FFFFFF;strokeColor=#000000;container=0;fontColor=#000000;" parent="1" vertex="1">
          <mxGeometry x="632" y="939" width="180" height="90" as="geometry" />
        </mxCell>
        <mxCell id="4gdbyEsOkvN1cczmlgGf-34" value="&lt;div&gt;&lt;font&gt;«component»&lt;/font&gt;&lt;/div&gt;&lt;div&gt;&lt;font&gt;&lt;b&gt;SettingsChessGame&lt;/b&gt;&lt;br&gt;&lt;/font&gt;&lt;/div&gt;" style="html=1;dropTarget=0;whiteSpace=wrap;fillColor=#FFFFFF;strokeColor=#000000;container=0;fontColor=#000000;" parent="1" vertex="1">
          <mxGeometry x="1040" y="939" width="180" height="90" as="geometry" />
        </mxCell>
        <mxCell id="4gdbyEsOkvN1cczmlgGf-37" value="" style="rounded=0;orthogonalLoop=1;jettySize=auto;html=1;endArrow=halfCircle;endFill=0;endSize=6;strokeWidth=1;sketch=0;edgeStyle=orthogonalEdgeStyle;exitX=-0.013;exitY=0.632;exitDx=0;exitDy=0;exitPerimeter=0;strokeColor=#000000;fillColor=#FFFFFF;fontColor=#000000;" parent="1" source="MvTKbooedZdlY5eyJeiM-89" target="GyxYuytBnQCfA59tnKjW-19" edge="1">
          <mxGeometry relative="1" as="geometry">
            <mxPoint x="1130" y="773" as="sourcePoint" />
            <mxPoint x="1110" y="773" as="targetPoint" />
          </mxGeometry>
        </mxCell>
        <mxCell id="4gdbyEsOkvN1cczmlgGf-43" value="" style="rounded=0;orthogonalLoop=1;jettySize=auto;html=1;endArrow=halfCircle;endFill=0;endSize=6;strokeWidth=1;sketch=0;exitX=0;exitY=0.5;exitDx=0;exitDy=0;strokeColor=#000000;fillColor=#FFFFFF;fontColor=#000000;" parent="1" source="MvTKbooedZdlY5eyJeiM-106" target="4gdbyEsOkvN1cczmlgGf-42" edge="1">
          <mxGeometry relative="1" as="geometry">
            <mxPoint x="765" y="841" as="sourcePoint" />
            <mxPoint x="645" y="895" as="targetPoint" />
          </mxGeometry>
        </mxCell>
        <mxCell id="4gdbyEsOkvN1cczmlgGf-42" value="" style="ellipse;whiteSpace=wrap;html=1;align=center;aspect=fixed;resizable=0;perimeter=centerPerimeter;rotatable=0;allowArrows=0;points=[];outlineConnect=1;strokeColor=#000000;container=0;fillColor=#FFFFFF;fontColor=#000000;" parent="1" vertex="1">
          <mxGeometry x="638" y="890" width="10" height="10" as="geometry" />
        </mxCell>
        <mxCell id="4gdbyEsOkvN1cczmlgGf-50" value="" style="rounded=0;orthogonalLoop=1;jettySize=auto;html=1;endArrow=oval;endFill=0;sketch=0;sourcePerimeterSpacing=0;targetPerimeterSpacing=0;endSize=10;strokeColor=#000000;exitX=0.5;exitY=0;exitDx=0;exitDy=0;fillColor=#FFFFFF;fontColor=#000000;" parent="1" source="4gdbyEsOkvN1cczmlgGf-34" target="4gdbyEsOkvN1cczmlgGf-54" edge="1">
          <mxGeometry relative="1" as="geometry">
            <mxPoint x="523" y="949" as="sourcePoint" />
            <mxPoint x="653" y="905" as="targetPoint" />
          </mxGeometry>
        </mxCell>
        <mxCell id="4gdbyEsOkvN1cczmlgGf-51" value="" style="rounded=0;orthogonalLoop=1;jettySize=auto;html=1;endArrow=oval;endFill=0;sketch=0;sourcePerimeterSpacing=0;targetPerimeterSpacing=0;endSize=10;exitX=0.5;exitY=0;exitDx=0;exitDy=0;strokeColor=#000000;fillColor=#FFFFFF;fontColor=#000000;" parent="1" source="MvTKbooedZdlY5eyJeiM-96" target="4gdbyEsOkvN1cczmlgGf-55" edge="1">
          <mxGeometry relative="1" as="geometry">
            <mxPoint x="533" y="959" as="sourcePoint" />
            <mxPoint x="663" y="915" as="targetPoint" />
          </mxGeometry>
        </mxCell>
        <mxCell id="4gdbyEsOkvN1cczmlgGf-52" value="" style="rounded=0;orthogonalLoop=1;jettySize=auto;html=1;endArrow=oval;endFill=0;sketch=0;sourcePerimeterSpacing=0;targetPerimeterSpacing=0;endSize=10;exitX=0.5;exitY=0;exitDx=0;exitDy=0;strokeColor=#000000;entryX=0.694;entryY=0.222;entryDx=0;entryDy=0;entryPerimeter=0;fillColor=#FFFFFF;fontColor=#000000;" parent="1" source="4gdbyEsOkvN1cczmlgGf-30" target="4gdbyEsOkvN1cczmlgGf-56" edge="1">
          <mxGeometry relative="1" as="geometry">
            <mxPoint x="543" y="969" as="sourcePoint" />
            <mxPoint x="735" y="856" as="targetPoint" />
          </mxGeometry>
        </mxCell>
        <mxCell id="4gdbyEsOkvN1cczmlgGf-57" value="" style="rounded=0;orthogonalLoop=1;jettySize=auto;html=1;endArrow=halfCircle;endFill=0;endSize=6;strokeWidth=1;sketch=0;strokeColor=#000000;exitX=0.25;exitY=1;exitDx=0;exitDy=0;entryX=0.302;entryY=0.532;entryDx=0;entryDy=0;entryPerimeter=0;fillColor=#FFFFFF;fontColor=#000000;" parent="1" source="MvTKbooedZdlY5eyJeiM-106" target="4gdbyEsOkvN1cczmlgGf-56" edge="1">
          <mxGeometry relative="1" as="geometry">
            <mxPoint x="820" y="881" as="sourcePoint" />
            <mxPoint x="744" y="913" as="targetPoint" />
          </mxGeometry>
        </mxCell>
        <mxCell id="4gdbyEsOkvN1cczmlgGf-56" value="" style="ellipse;whiteSpace=wrap;html=1;align=center;aspect=fixed;resizable=0;perimeter=centerPerimeter;rotatable=0;allowArrows=0;points=[];outlineConnect=1;strokeColor=#000000;container=0;fillColor=#FFFFFF;fontColor=#000000;" parent="1" vertex="1">
          <mxGeometry x="741.5" y="907" width="10" height="10" as="geometry" />
        </mxCell>
        <mxCell id="4gdbyEsOkvN1cczmlgGf-58" value="" style="rounded=0;orthogonalLoop=1;jettySize=auto;html=1;endArrow=halfCircle;endFill=0;endSize=6;strokeWidth=1;sketch=0;strokeColor=#000000;exitX=0.75;exitY=1;exitDx=0;exitDy=0;entryX=0.455;entryY=0.53;entryDx=0;entryDy=0;entryPerimeter=0;fillColor=#FFFFFF;fontColor=#000000;" parent="1" source="MvTKbooedZdlY5eyJeiM-106" target="4gdbyEsOkvN1cczmlgGf-55" edge="1">
          <mxGeometry relative="1" as="geometry">
            <mxPoint x="910" y="881" as="sourcePoint" />
            <mxPoint x="916" y="912" as="targetPoint" />
          </mxGeometry>
        </mxCell>
        <mxCell id="4gdbyEsOkvN1cczmlgGf-55" value="" style="ellipse;whiteSpace=wrap;html=1;align=center;aspect=fixed;resizable=0;perimeter=centerPerimeter;rotatable=0;allowArrows=0;points=[];outlineConnect=1;strokeColor=#000000;container=0;fillColor=#FFFFFF;fontColor=#000000;" parent="1" vertex="1">
          <mxGeometry x="909" y="905" width="10" height="10" as="geometry" />
        </mxCell>
        <mxCell id="4gdbyEsOkvN1cczmlgGf-59" value="" style="rounded=0;orthogonalLoop=1;jettySize=auto;html=1;endArrow=halfCircle;endFill=0;endSize=6;strokeWidth=1;sketch=0;exitX=1;exitY=0.5;exitDx=0;exitDy=0;strokeColor=#000000;entryX=0.582;entryY=0.505;entryDx=0;entryDy=0;entryPerimeter=0;fillColor=#FFFFFF;fontColor=#000000;" parent="1" source="MvTKbooedZdlY5eyJeiM-106" target="4gdbyEsOkvN1cczmlgGf-54" edge="1">
          <mxGeometry relative="1" as="geometry">
            <mxPoint x="955" y="836" as="sourcePoint" />
            <mxPoint x="1059" y="898" as="targetPoint" />
          </mxGeometry>
        </mxCell>
        <mxCell id="4gdbyEsOkvN1cczmlgGf-54" value="" style="ellipse;whiteSpace=wrap;html=1;align=center;aspect=fixed;resizable=0;perimeter=centerPerimeter;rotatable=0;allowArrows=0;points=[];outlineConnect=1;strokeColor=#000000;container=0;fillColor=#FFFFFF;fontColor=#000000;" parent="1" vertex="1">
          <mxGeometry x="1051" y="890" width="10" height="10" as="geometry" />
        </mxCell>
        <mxCell id="x85bNRvsHFvpaz6X490h-3" value="" style="rounded=0;orthogonalLoop=1;jettySize=auto;html=1;endArrow=oval;endFill=0;sketch=0;sourcePerimeterSpacing=0;targetPerimeterSpacing=0;endSize=10;exitX=0.75;exitY=0;exitDx=0;exitDy=0;strokeColor=#000000;entryX=0.9;entryY=0.6;entryDx=0;entryDy=0;entryPerimeter=0;fillColor=#FFFFFF;fontColor=#000000;" parent="1" source="4gdbyEsOkvN1cczmlgGf-28" target="4gdbyEsOkvN1cczmlgGf-42" edge="1">
          <mxGeometry relative="1" as="geometry">
            <mxPoint x="732" y="949" as="sourcePoint" />
            <mxPoint x="757" y="922" as="targetPoint" />
          </mxGeometry>
        </mxCell>
        <mxCell id="x85bNRvsHFvpaz6X490h-5" value="" style="rounded=0;orthogonalLoop=1;jettySize=auto;html=1;endArrow=halfCircle;endFill=0;endSize=6;strokeWidth=1;sketch=0;exitX=0;exitY=1;exitDx=0;exitDy=0;strokeColor=#000000;entryX=0.5;entryY=0.1;entryDx=0;entryDy=0;entryPerimeter=0;fillColor=#FFFFFF;fontColor=#000000;" parent="1" source="MvTKbooedZdlY5eyJeiM-89" target="x85bNRvsHFvpaz6X490h-4" edge="1">
          <mxGeometry relative="1" as="geometry">
            <mxPoint x="765" y="744" as="sourcePoint" />
            <mxPoint x="722" y="791" as="targetPoint" />
          </mxGeometry>
        </mxCell>
        <mxCell id="x85bNRvsHFvpaz6X490h-4" value="" style="ellipse;whiteSpace=wrap;html=1;align=center;aspect=fixed;resizable=0;perimeter=centerPerimeter;rotatable=0;allowArrows=0;points=[];outlineConnect=1;strokeColor=#000000;container=0;fillColor=#FFFFFF;fontColor=#000000;" parent="1" vertex="1">
          <mxGeometry x="719" y="787" width="10" height="10" as="geometry" />
        </mxCell>
        <mxCell id="MvTKbooedZdlY5eyJeiM-2" value="" style="shape=module;jettyWidth=8;jettyHeight=4;fillColor=#FFFFFF;strokeColor=#000000;container=0;fontColor=#000000;" parent="1" vertex="1">
          <mxGeometry x="797" y="119" width="20" height="20" as="geometry">
            <mxPoint x="-27" y="7" as="offset" />
          </mxGeometry>
        </mxCell>
        <mxCell id="MvTKbooedZdlY5eyJeiM-28" value="" style="shape=module;jettyWidth=8;jettyHeight=4;fillColor=#FFFFFF;strokeColor=#000000;container=0;fontColor=#000000;" parent="1" vertex="1">
          <mxGeometry x="1618" y="162" width="20" height="20" as="geometry">
            <mxPoint x="-27" y="7" as="offset" />
          </mxGeometry>
        </mxCell>
        <mxCell id="MvTKbooedZdlY5eyJeiM-33" value="" style="shape=module;jettyWidth=8;jettyHeight=4;strokeColor=#000000;fillColor=#FFFFFF;container=0;fontColor=#000000;" parent="1" vertex="1">
          <mxGeometry x="1115.5" y="182.5" width="20" height="20" as="geometry">
            <mxPoint x="-27" y="7" as="offset" />
          </mxGeometry>
        </mxCell>
        <mxCell id="MvTKbooedZdlY5eyJeiM-37" value="" style="shape=module;jettyWidth=8;jettyHeight=4;strokeColor=#000000;fillColor=#FFFFFF;container=0;fontColor=#000000;" parent="1" vertex="1">
          <mxGeometry x="1571" y="227" width="20" height="20" as="geometry">
            <mxPoint x="-27" y="7" as="offset" />
          </mxGeometry>
        </mxCell>
        <mxCell id="MvTKbooedZdlY5eyJeiM-39" value="" style="shape=module;jettyWidth=8;jettyHeight=4;strokeColor=#000000;fillColor=#FFFFFF;container=0;fontColor=#000000;" parent="1" vertex="1">
          <mxGeometry x="1571" y="386" width="20" height="20" as="geometry">
            <mxPoint x="-27" y="7" as="offset" />
          </mxGeometry>
        </mxCell>
        <mxCell id="MvTKbooedZdlY5eyJeiM-41" value="" style="shape=module;jettyWidth=8;jettyHeight=4;strokeColor=#000000;fillColor=#FFFFFF;container=0;fontColor=#000000;" parent="1" vertex="1">
          <mxGeometry x="1128" y="373.5" width="20" height="20" as="geometry">
            <mxPoint x="-27" y="7" as="offset" />
          </mxGeometry>
        </mxCell>
        <mxCell id="MvTKbooedZdlY5eyJeiM-43" value="" style="shape=module;jettyWidth=8;jettyHeight=4;strokeColor=#000000;fillColor=#FFFFFF;container=0;fontColor=#000000;" parent="1" vertex="1">
          <mxGeometry x="787" y="192" width="20" height="20" as="geometry">
            <mxPoint x="-27" y="7" as="offset" />
          </mxGeometry>
        </mxCell>
        <mxCell id="MvTKbooedZdlY5eyJeiM-88" value="" style="shape=module;jettyWidth=8;jettyHeight=4;fillColor=#FFFFFF;strokeColor=#000000;container=0;fontColor=#000000;" parent="1" vertex="1">
          <mxGeometry x="1333" y="620" width="20" height="20" as="geometry">
            <mxPoint x="-27" y="7" as="offset" />
          </mxGeometry>
        </mxCell>
        <mxCell id="MvTKbooedZdlY5eyJeiM-90" value="" style="shape=module;jettyWidth=8;jettyHeight=4;strokeColor=#000000;fillColor=#FFFFFF;container=0;fontColor=#000000;" parent="1" vertex="1">
          <mxGeometry x="942.5" y="635.5" width="20" height="20" as="geometry">
            <mxPoint x="-27" y="7" as="offset" />
          </mxGeometry>
        </mxCell>
        <mxCell id="MvTKbooedZdlY5eyJeiM-97" value="" style="shape=module;jettyWidth=8;jettyHeight=4;strokeColor=#000000;fillColor=#FFFFFF;container=0;fontColor=#000000;" parent="1" vertex="1">
          <mxGeometry x="987" y="946" width="20" height="20" as="geometry">
            <mxPoint x="-27" y="7" as="offset" />
          </mxGeometry>
        </mxCell>
        <mxCell id="MvTKbooedZdlY5eyJeiM-101" value="" style="shape=module;jettyWidth=8;jettyHeight=4;strokeColor=#000000;fillColor=#FFFFFF;container=0;fontColor=#000000;" parent="1" vertex="1">
          <mxGeometry x="587" y="782" width="20" height="20" as="geometry">
            <mxPoint x="-27" y="7" as="offset" />
          </mxGeometry>
        </mxCell>
        <mxCell id="MvTKbooedZdlY5eyJeiM-103" value="" style="shape=module;jettyWidth=8;jettyHeight=4;strokeColor=#000000;fillColor=#FFFFFF;container=0;fontColor=#000000;" parent="1" vertex="1">
          <mxGeometry x="587" y="666" width="20" height="20" as="geometry">
            <mxPoint x="-27" y="7" as="offset" />
          </mxGeometry>
        </mxCell>
        <mxCell id="MvTKbooedZdlY5eyJeiM-107" value="" style="shape=module;jettyWidth=8;jettyHeight=4;strokeColor=#000000;fillColor=#FFFFFF;container=0;fontColor=#000000;" parent="1" vertex="1">
          <mxGeometry x="928" y="798" width="20" height="20" as="geometry">
            <mxPoint x="-27" y="7" as="offset" />
          </mxGeometry>
        </mxCell>
        <mxCell id="MvTKbooedZdlY5eyJeiM-109" value="" style="shape=module;jettyWidth=8;jettyHeight=4;strokeColor=#000000;fillColor=#FFFFFF;container=0;fontColor=#000000;" parent="1" vertex="1">
          <mxGeometry x="1313" y="672" width="20" height="20" as="geometry">
            <mxPoint x="-27" y="7" as="offset" />
          </mxGeometry>
        </mxCell>
        <mxCell id="4gdbyEsOkvN1cczmlgGf-2" value="" style="shape=module;jettyWidth=8;jettyHeight=4;fillColor=#FFFFFF;strokeColor=#000000;container=0;fontColor=#000000;" parent="1" vertex="1">
          <mxGeometry x="522" y="382" width="20" height="20" as="geometry">
            <mxPoint x="-27" y="7" as="offset" />
          </mxGeometry>
        </mxCell>
        <mxCell id="4gdbyEsOkvN1cczmlgGf-6" value="" style="shape=module;jettyWidth=8;jettyHeight=4;fillColor=#FFFFFF;strokeColor=#000000;container=0;fontColor=#000000;" parent="1" vertex="1">
          <mxGeometry x="490" y="127" width="20" height="20" as="geometry">
            <mxPoint x="-27" y="7" as="offset" />
          </mxGeometry>
        </mxCell>
        <mxCell id="4gdbyEsOkvN1cczmlgGf-8" value="" style="shape=module;jettyWidth=8;jettyHeight=4;fillColor=#FFFFFF;strokeColor=#000000;container=0;fontColor=#000000;" parent="1" vertex="1">
          <mxGeometry x="782" y="382" width="20" height="20" as="geometry">
            <mxPoint x="-27" y="7" as="offset" />
          </mxGeometry>
        </mxCell>
        <mxCell id="4gdbyEsOkvN1cczmlgGf-29" value="" style="shape=module;jettyWidth=8;jettyHeight=4;strokeColor=#000000;fillColor=#FFFFFF;container=0;fontColor=#000000;" parent="1" vertex="1">
          <mxGeometry x="576" y="946" width="20" height="20" as="geometry">
            <mxPoint x="-27" y="7" as="offset" />
          </mxGeometry>
        </mxCell>
        <mxCell id="4gdbyEsOkvN1cczmlgGf-31" value="" style="shape=module;jettyWidth=8;jettyHeight=4;strokeColor=#000000;fillColor=#FFFFFF;container=0;fontColor=#000000;" parent="1" vertex="1">
          <mxGeometry x="785" y="946" width="20" height="20" as="geometry">
            <mxPoint x="-27" y="7" as="offset" />
          </mxGeometry>
        </mxCell>
        <mxCell id="4gdbyEsOkvN1cczmlgGf-35" value="" style="shape=module;jettyWidth=8;jettyHeight=4;strokeColor=#000000;fillColor=#FFFFFF;container=0;fontColor=#000000;" parent="1" vertex="1">
          <mxGeometry x="1193" y="946" width="20" height="20" as="geometry">
            <mxPoint x="-27" y="7" as="offset" />
          </mxGeometry>
        </mxCell>
      </root>
    </mxGraphModel>
  </diagram>
</mxfile>
